<?xml version="1.0" encoding="UTF-8" standalone="no"?>
<svg
   version="1.1"
   width="512"
   height="512"
   x="0"
   y="0"
   viewBox="0 0 512 512"
   xml:space="preserve"
   class=""
   id="svg1"
   xmlns="http://www.w3.org/2000/svg"
   xmlns:svg="http://www.w3.org/2000/svg"><defs
     id="defs1" /><g
     id="g1"
     transform="matrix(0.82166624,0,0,0.82166624,34.12793,48.615549)"><path
       d="M 404.322,0 H 107.677 c -24.813,0 -45,20.187 -45,45 v 422 c 0,24.813 20.187,45 45,45 h 296.645 c 24.813,0 45,-20.187 45,-45 V 45 c 0,-24.813 -20.188,-45 -45,-45 z M 123.77,88.35 c 0,-6.6 5.4,-12 12,-12 h 244.473 c 6.6,0 12,5.4 12,12 v 45.749 c 0.001,6.6 -5.399,12 -11.999,12 H 135.77 c -6.6,0 -12,-5.4 -12,-12 V 88.35 Z m 146.257,164.045 h -28.053 c -8.285,0 -15,-6.716 -15,-15 v -20.383 c 0,-8.284 6.716,-15 15,-15 h 28.053 c 8.284,0 15,6.716 15,15 v 20.383 c 0,8.284 -6.716,15 -15,15 z m 15,61.239 v 20.383 c 0,8.284 -6.716,15 -15,15 h -28.053 c -8.284,0 -15,-6.716 -15,-15 v -20.383 c 0,-8.285 6.715,-15 15,-15 h 28.053 c 8.284,0 15,6.716 15,15 z m -107.22,117.005 c 0,8.284 -6.716,15 -15,15 h -28.053 c -8.284,0 -15,-6.716 -15,-15 v -20.383 c 0,-8.284 6.716,-15 15,-15 h 28.053 c 8.284,0 15,6.715 15,15 z m 0,-96.622 c 0,8.284 -6.716,15 -15,15 h -28.053 c -8.284,0 -15,-6.716 -15,-15 v -20.383 c 0,-8.284 6.716,-15 15,-15 h 28.053 c 8.284,0 15,6.716 15,15 z m 0,-96.622 c 0,8.284 -6.716,15 -15,15 h -28.053 c -8.284,0 -15,-6.716 -15,-15 v -20.383 c 0,-8.284 6.716,-15 15,-15 h 28.053 c 8.284,0 15,6.716 15,15 z m 214.437,193.244 c 0,8.284 -6.716,15 -15,15 H 241.973 c -8.284,0 -15,-6.716 -15,-15 v -20.383 c 0,-8.285 6.715,-15 15,-15 h 135.271 c 8.284,0 15,6.716 15,15 z m 0,-96.622 c 0,8.284 -6.716,15 -15,15 h -28.053 c -8.284,0 -15,-6.716 -15,-15 v -20.383 c 0,-8.284 6.716,-15 15,-15 h 28.053 c 8.284,0 15,6.716 15,15 z m 0,-96.622 c 0,8.284 -6.716,15 -15,15 h -28.053 c -8.284,0 -15,-6.716 -15,-15 v -20.383 c 0,-8.284 6.716,-15 15,-15 h 28.053 c 8.284,0 15,6.716 15,15 z"
       fill="#1f1f1f"
       opacity="1"
       data-original="#000000"
       class=""
       id="path1" /></g></svg>
