<?xml version="1.0" encoding="UTF-8" standalone="no"?>
<svg
   height="24"
   viewBox="0 -960 960 960"
   width="24"
   fill="#1f1f1f"
   version="1.1"
   id="svg1"
   xmlns="http://www.w3.org/2000/svg"
   xmlns:svg="http://www.w3.org/2000/svg">
  <defs
     id="defs1" />
  <g
     id="g23">
    <path
       id="path1"
       d="m 480,-880 c -77.33333,0 -143.30208,27.36458 -197.96875,82.03125 C 227.36458,-743.30208 200,-677.33333 200,-600 v 240 c 0,77.33333 27.36458,143.30208 82.03125,197.96875 C 336.69792,-107.36458 402.66667,-80 480,-80 c 9.81562,0 19.4558,-0.447432 28.90625,-1.328125 -2.05551,-3.257552 -3.65873,-6.779369 -4.76563,-10.46875 L 483.67188,-160 c -1.21519,0.0191 -2.44872,0 -3.67188,0 -55.33333,0 -102.48437,-19.51563 -141.48438,-58.51562 C 299.51562,-257.51562 280,-304.66667 280,-360 v -160 h 400 v 102.73438 l 80,23.98437 V -600 c 0,-77.33333 -27.36458,-143.30208 -82.03125,-197.96875 C 623.30208,-852.63542 557.33333,-880 480,-880 Z m -40,83.98438 V -600 H 280 c 0,-48 15.13542,-90.36458 45.46875,-127.03125 C 355.80208,-763.69792 394,-786.68229 440,-796.01562 Z m 80,0 c 46,9.33333 84.19792,32.3177 114.53125,68.98437 C 664.86458,-690.36458 680,-648 680,-600 H 520 Z m 126.09375,548.20312 c -1.90252,2.74886 -3.87484,5.44321 -5.9375,8.125 l 56.875,56.875 c 2.15046,-2.5797 4.20969,-5.18713 6.25,-7.8125 z"
       style="display:inline" />
    <path
       style="baseline-shift:baseline;display:inline;overflow:visible;opacity:1;vector-effect:none;stroke-linecap:round;stroke-linejoin:round;paint-order:stroke fill markers;enable-background:accumulate;stop-color:#000000;stop-opacity:1"
       d="M 732.7105,-87.002955 587.34505,-232.3684 544.84053,-104.00476 442.82969,-444.0409 l 340.03614,102.01085 -128.36365,42.50451 145.36545,145.36545 z"
       id="path3" />
  </g>
</svg>
